<svg xmlns="http://www.w3.org/2000/svg" viewBox="0 0 48 48"><defs><style>.cls-1{fill:#175a9f;}.cls-2{fill:#fff;}.cls-3{fill:#757575;opacity:0.15;}.cls-4{fill:none;stroke:#404041;stroke-miterlimit:10;stroke-width:1.25px;}</style></defs><title>VD-EDC-Sphinx-S23-Iconography-v2</title><g id="Layer_2" data-name="Layer 2"><rect class="cls-1" x="12.2" y="23" width="16" height="8"/><path class="cls-1" d="M27.7,23.5v7h-15v-7h15m.87-1H11.83a.13.13,0,0,0-.13.13v8.74a.13.13,0,0,0,.13.13H28.57a.13.13,0,0,0,.13-.13V22.63a.13.13,0,0,0-.13-.13Z"/><path class="cls-2" d="M13.9,29.21V24.78h1.26a2,2,0,0,1,2.3,2.2,2,2,0,0,1-2.3,2.23Zm.74-.67h.59c1,0,1.48-.44,1.48-1.56s-.48-1.51-1.5-1.51h-.57Z"/><path class="cls-2" d="M18.12,27a2,2,0,1,1,4,0,2,2,0,1,1-4,0Zm3.25,0c0-1.05-.5-1.62-1.24-1.62S18.87,26,18.87,27s.5,1.62,1.26,1.62S21.37,28,21.37,27Z"/><path class="cls-2" d="M22.78,27c0-1.48.83-2.29,1.94-2.29a1.63,1.63,0,0,1,1.73,1.38l-.72.21c-.17-.59-.42-.89-1-.89-.75,0-1.19.58-1.19,1.59s.45,1.64,1.2,1.64c.58,0,.9-.29,1.07-1l.71.16a1.72,1.72,0,0,1-1.79,1.48C23.58,29.3,22.78,28.51,22.78,27Z"/><path class="cls-3" d="M30.48,17.5l0,15.87a.13.13,0,0,1-.13.13H14.5v2.87a.13.13,0,0,0,.13.13H33.37a.13.13,0,0,0,.13-.13V17.51S30.48,17.5,30.48,17.5Z"/><path class="cls-4" d="M14.5,21.5V11.63a.13.13,0,0,1,.13-.13H28a.12.12,0,0,1,.09,0L33.46,17a.12.12,0,0,1,0,.09V36.37a.13.13,0,0,1-.13.13H14.63a.13.13,0,0,1-.13-.13V32.5"/><path class="cls-4" d="M33.19,17.5H27.63a.13.13,0,0,1-.13-.13V11.81"/></g></svg>