<svg xmlns="http://www.w3.org/2000/svg" viewBox="0 0 48 48"><defs><style>.cls-1{fill:#757575;opacity:0.15;}.cls-2{fill:none;stroke:#404041;stroke-miterlimit:10;stroke-width:1.25px;}</style></defs><title>VD-EDC-Sphinx-S23-Iconography-v2</title><g id="Layer_2" data-name="Layer 2"><path class="cls-1" d="M30.48,17.5l0,15.87a.13.13,0,0,1-.13.13H14.5v2.87a.13.13,0,0,0,.13.13H33.37a.13.13,0,0,0,.13-.13V17.51S30.48,17.5,30.48,17.5Z"/><path class="cls-2" d="M14.5,11.63a.13.13,0,0,1,.13-.13H28a.12.12,0,0,1,.09,0L33.46,17a.12.12,0,0,1,0,.09V36.37a.13.13,0,0,1-.13.13H14.63a.13.13,0,0,1-.13-.13Z"/><path class="cls-2" d="M33.19,17.5H27.63a.13.13,0,0,1-.13-.13V11.81"/></g></svg>