<svg xmlns="http://www.w3.org/2000/svg" viewBox="0 0 48 48"><defs><style>.cls-1{fill:#757575;opacity:0.15;}.cls-2{fill:none;stroke:#404041;stroke-miterlimit:10;stroke-width:1.25px;}.cls-3{fill:#e54242;}.cls-4{fill:#fff;}</style></defs><title>VD-EDC-Sphinx-S23-Iconography-v2</title><g id="Layer_2" data-name="Layer 2"><path class="cls-1" d="M30.48,17.5l0,15.87a.13.13,0,0,1-.13.13H14.5v2.87a.13.13,0,0,0,.13.13H33.37a.13.13,0,0,0,.13-.13V17.51S30.48,17.5,30.48,17.5Z"/><path class="cls-2" d="M14.5,21.5V11.63a.13.13,0,0,1,.13-.13H28a.12.12,0,0,1,.09,0L33.46,17a.12.12,0,0,1,0,.09V36.37a.13.13,0,0,1-.13.13H14.63a.13.13,0,0,1-.13-.13V32.5"/><path class="cls-2" d="M33.19,17.5H27.63a.13.13,0,0,1-.13-.13V11.81"/><rect class="cls-3" x="12.2" y="23" width="16" height="8"/><path class="cls-3" d="M27.7,23.5v7h-15v-7h15m.87-1H11.83a.13.13,0,0,0-.13.13v8.74a.13.13,0,0,0,.13.13H28.57a.13.13,0,0,0,.13-.13V22.63a.13.13,0,0,0-.13-.13Z"/><path class="cls-4" d="M14.56,29.21V24.78h1.55c1,0,1.71.33,1.71,1.36s-.82,1.39-1.73,1.39H15.3v1.68Zm.74-2.33h.83c.66,0,1-.21,1-.72s-.3-.7-1-.7H15.3Z"/><path class="cls-4" d="M18.61,29.21V24.78h1.27a2,2,0,0,1,2.3,2.2,2,2,0,0,1-2.3,2.23Zm.75-.67h.58c1,0,1.49-.44,1.49-1.56s-.48-1.51-1.5-1.51h-.57Z"/><path class="cls-4" d="M23.05,29.21V24.78h2.8v.69H23.8v1.19h1.48v.67H23.8v1.88Z"/></g></svg>