<svg xmlns="http://www.w3.org/2000/svg" viewBox="0 0 48 48"><defs><style>.cls-1{fill:#757576;}.cls-2,.cls-4{fill:#757575;}.cls-3{fill:#fff;}.cls-4{opacity:0.15;}.cls-5{fill:none;stroke:#404041;stroke-miterlimit:10;stroke-width:1.25px;}</style></defs><title>VD-EDC-Sphinx-S23-Iconography-v2</title><g id="Layer_2" data-name="Layer 2"><rect class="cls-1" x="12.2" y="23" width="16" height="8"/><path class="cls-2" d="M27.7,23.5v7h-15v-7h15m.87-1H11.83a.13.13,0,0,0-.13.13v8.74a.13.13,0,0,0,.13.13H28.57a.13.13,0,0,0,.13-.13V22.63a.13.13,0,0,0-.13-.13Z"/><path class="cls-3" d="M15.82,29.21V25.47H14.45v-.69h3.49v.69H16.57v3.74Z"/><path class="cls-3" d="M18.3,29.21l1.48-2.35-1.32-2.08h.86l.92,1.48.9-1.48h.78l-1.3,2.08,1.48,2.35h-.83l-1.09-1.75-1.09,1.75Z"/><path class="cls-3" d="M23.84,29.21V25.47H22.47v-.69H26v.69H24.59v3.74Z"/><path class="cls-4" d="M30.48,17.5l0,15.87a.13.13,0,0,1-.13.13H14.5v2.87a.13.13,0,0,0,.13.13H33.37a.13.13,0,0,0,.13-.13V17.51S30.48,17.5,30.48,17.5Z"/><path class="cls-5" d="M14.5,21.5V11.63a.13.13,0,0,1,.13-.13H28a.12.12,0,0,1,.09,0L33.46,17a.12.12,0,0,1,0,.09V36.37a.13.13,0,0,1-.13.13H14.63a.13.13,0,0,1-.13-.13V32.5"/><path class="cls-5" d="M33.19,17.5H27.63a.13.13,0,0,1-.13-.13V11.81"/></g></svg>