<?xml version="1.0" encoding="UTF-8"?>
<svg width="309px" height="270px" viewBox="0 0 309 270" version="1.1" xmlns="http://www.w3.org/2000/svg" xmlns:xlink="http://www.w3.org/1999/xlink">
    <!-- Generator: Sketch 51.3 (57544) - http://www.bohemiancoding.com/sketch -->
    <title>Icon / Blog Size L</title>
    <desc>Created with Sketch.</desc>
    <defs></defs>
    <g id="↳-Decorative-Icons" stroke="none" stroke-width="1" fill="none" fill-rule="evenodd" stroke-linejoin="round">
        <g id="::-[Elements]-01---Page-Backgrounds---Desktop" transform="translate(-376.000000, -2248.000000)" fill="#2F78C6" stroke="#2F78C6">
            <g id="Icon-/-Blog-Size-L" transform="translate(378.000000, 2250.000000)">
                <g>
                    <polygon id="Fill-2" stroke-width="4" points="304.998244 0.000621220882 254.166804 41.4153467 254.166804 41.4163821 203.327103 0.000621220882 152.496695 41.4153467 101.664222 0.000621220882 50.8327822 41.4153467 0.00237448087 0.000621220882 0.000309337448 42.6898849 50.8327822 84.1046104 101.664222 42.6898849 152.496695 84.1046104 203.330201 42.6898849 254.166804 84.103575 254.166804 84.1046104 305.000309 42.6898849"></polygon>
                    <polygon id="Fill-3" stroke-width="4" points="50.832576 131.213974 0.00216825591 89.8002842 0.000103112483 132.488513 50.832576 173.904273 50.832576 173.905309 101.664016 132.489548 152.496489 173.904273 203.329995 132.488513 254.166598 173.903238 254.166598 173.904273 305.000103 132.488513 304.998038 89.8002842 254.166598 131.213974 254.166598 131.216045 203.327929 89.8002842 152.496489 131.213974 101.664016 89.7992489"></polygon>
                    <polygon id="Fill-4" stroke-width="4" points="50.832576 223.076198 0.00216825591 181.661472 0.000103112483 224.3497 50.832576 265.765461 50.832576 265.766497 50.8336085 265.766497 101.664016 224.350736 152.496489 265.765461 203.329995 224.3497 254.166598 265.764426 254.166598 265.765461 305.000103 224.3497 304.998038 181.661472 254.166598 223.076198 254.166598 223.077233 203.327929 181.661472 152.496489 223.076198 101.664016 181.660437"></polygon>
                </g>
            </g>
        </g>
    </g>
</svg>