<svg width="17" height="16" viewBox="0 0 17 16" fill="none" xmlns="http://www.w3.org/2000/svg">
    <path d="M11.3527 9.7394L16.5 14.8867L15.3867 16L10.2394 10.8527L11.3527 9.7394ZM14.9693 15.304L10.8655 11.2002C9.75212 12.1049 8.29131 12.661 6.83051 12.661C5.16101 12.661 3.56143 12.035 2.37818 10.7828C1.12606 9.60063 0.5 8 0.5 6.33051C0.5 4.66101 1.12606 3.06143 2.37818 1.87818C3.56039 0.626059 5.16101 0 6.83051 0C8.5 0 10.0996 0.626059 11.2828 1.87818C13.5784 4.17373 13.7172 7.86018 11.7002 10.3644L15.804 14.4682L14.9693 15.303V15.304ZM6.76164 1.39194C5.43961 1.39194 4.2574 1.87922 3.28388 2.85274C2.37922 3.7574 1.89298 4.93961 1.89298 6.26164C1.89298 7.58367 2.38027 8.76588 3.35379 9.67054C4.25844 10.6441 5.44065 11.1313 6.76268 11.1313C8.08471 11.1313 9.26692 10.6441 10.2404 9.67054C12.1186 7.79236 12.1186 4.66206 10.2404 2.78388C9.26692 1.87922 8.08367 1.39298 6.76268 1.39298L6.76164 1.39194Z" fill="#333333"/>
    </svg>