<svg id="svg" version="1.1" width="98" height="98" xmlns="http://www.w3.org/2000/svg"><path d="M29.445 2.974 C 19.555 5.060,9.984 12.939,5.277 22.870 C 1.460 30.922,1.465 42.089,5.289 50.156 C 8.708 57.370,15.630 64.292,22.844 67.711 C 31.012 71.583,42.068 71.545,50.356 67.617 C 57.810 64.084,64.084 57.810,67.617 50.356 C 71.545 42.068,71.583 31.012,67.711 22.844 C 64.364 15.782,57.392 8.712,50.656 5.548 C 44.857 2.825,35.524 1.692,29.445 2.974 M45.782 15.553 C 54.185 19.063,58.956 26.650,58.956 36.500 C 58.956 50.030,50.003 59.000,36.500 59.000 C 23.109 59.000,14.073 50.042,14.022 36.718 C 13.985 26.999,18.388 19.651,26.500 15.896 C 31.460 13.599,40.711 13.435,45.782 15.553 M67.731 67.763 L 64.026 71.558 75.294 82.795 L 86.563 94.032 90.269 90.237 L 93.974 86.442 82.706 75.205 L 71.437 63.968 67.731 67.763 " stroke="none" fill="black" fill-rule="evenodd"/></svg>