<?xml version="1.0" encoding="UTF-8"?>
<svg width="283px" height="246px" viewBox="0 0 283 246" version="1.1" xmlns="http://www.w3.org/2000/svg" xmlns:xlink="http://www.w3.org/1999/xlink">
    <!-- Generator: Sketch 52.6 (67491) - http://www.bohemiancoding.com/sketch -->
    <title>Icon Wave Sandstone</title>
    <desc>Created with Sketch.</desc>
    <g id="S4---Theme-Colour-Documentation" stroke="none" stroke-width="1" fill="none" fill-rule="evenodd">
        <g id="Icon-Wave-Sandstone" transform="translate(0.756493, 0.000000)" fill="#ED834E">
            <g id="Icon-/-Blog-Size-L">
                <polygon id="Fill-2" points="281.998377 0.000574512545 235.000127 38.3014109 235.000127 38.3023684 187.99424 0.000574512545 140.996945 38.3014109 93.9977401 0.000574512545 46.9994904 38.3014109 0.00219542166 0.000574512545 0.000286010361 39.4801191 46.9994904 77.7809555 93.9977401 39.4801191 140.996945 77.7809555 187.997104 39.4801191 235.000127 77.7799979 235.000127 77.7809555 282.000286 39.4801191"></polygon>
                <polygon id="Fill-3" points="46.9992997 121.348262 0.00200474809 83.0483832 9.53367871e-05 122.52697 46.9992997 160.828764 46.9992997 160.829722 93.9975495 122.527928 140.996754 160.828764 187.996913 122.52697 234.999936 160.827807 234.999936 160.828764 282.000095 122.52697 281.998186 83.0483832 234.999936 121.348262 234.999936 121.350177 187.995004 83.0483832 140.996754 121.348262 93.9975495 83.0474256"></polygon>
                <polygon id="Fill-4" points="46.9992997 206.303551 0.00200474809 168.002715 9.53367871e-05 207.481302 46.9992997 245.783096 46.9992997 245.784053 47.0002545 245.784053 93.9975495 207.482259 140.996754 245.783096 187.996913 207.481302 234.999936 245.782138 234.999936 245.783096 282.000095 207.481302 281.998186 168.002715 234.999936 206.303551 234.999936 206.304509 187.995004 168.002715 140.996754 206.303551 93.9975495 168.001757"></polygon>
            </g>
        </g>
    </g>
</svg>