<?xml version="1.0" encoding="utf-8"?>
<!-- Generator: Adobe Illustrator 21.0.2, SVG Export Plug-In . SVG Version: 6.00 Build 0)  -->
<svg version="1.1" id="Layer_1" xmlns="http://www.w3.org/2000/svg" xmlns:xlink="http://www.w3.org/1999/xlink" x="0px" y="0px"
	 viewBox="0 0 11 11" style="enable-background:new 0 0 11 11;" xml:space="preserve">
<style type="text/css">
	.st0{enable-background:new    ;}
</style>
<g id="_x2D_--Sprint-14" fill="#4386ac">
	<g id="Article-Page---3-Recos" transform="translate(-261.000000, -990.000000)">
		<g id="Author" transform="translate(260.000000, 874.000000)">
			<g class="st0">
				<path d="M3.8,117.9c0,0.3-0.1,0.6-0.3,0.8C3.3,118.9,3,119,2.6,119h0c-0.4,0-0.7-0.1-0.9-0.3c-0.2-0.2-0.3-0.5-0.3-0.8
					c0-0.3,0.1-0.6,0.3-0.8s0.5-0.3,0.9-0.3s0.7,0.1,0.9,0.3S3.8,117.5,3.8,117.9z M3.7,119.9v6.6H1.5v-6.6H3.7z M11.6,122.7v3.8
					H9.4V123c0-0.5-0.1-0.8-0.3-1.1s-0.5-0.4-0.8-0.4c-0.3,0-0.5,0.1-0.7,0.2s-0.3,0.3-0.4,0.6c0,0.1-0.1,0.3-0.1,0.5v3.7H4.9
					c0-1.8,0-3.2,0-4.3s0-1.8,0-2l0-0.3h2.2v1h0c0.1-0.1,0.2-0.3,0.3-0.4c0.1-0.1,0.2-0.2,0.4-0.3s0.4-0.2,0.6-0.3
					c0.2-0.1,0.5-0.1,0.8-0.1c0.8,0,1.4,0.3,1.8,0.8C11.4,121,11.6,121.8,11.6,122.7z"/>
			</g>
		</g>
	</g>
</g>
</svg>
